<?xml version="1.0" standalone="no"?>
<!DOCTYPE svg PUBLIC "-//W3C//DTD SVG 20010904//EN"
 "http://www.w3.org/TR/2001/REC-SVG-20010904/DTD/svg10.dtd">
<svg version="1.0" xmlns="http://www.w3.org/2000/svg"
 width="416.000000pt" height="386.000000pt" viewBox="0 0 416.000000 386.000000"
 preserveAspectRatio="xMidYMid meet">
<metadata>
Created by potrace 1.15, written by Peter Selinger 2001-2017
</metadata>
<g transform="translate(0.000000,386.000000) scale(0.100000,-0.100000)"
fill="#000000" stroke="none">
<path d="M2062 1580 c-13 -151 -43 -374 -66 -494 -9 -44 -13 -82 -11 -85 18
-18 181 -18 169 0 -3 5 -5 49 -5 99 0 49 -4 92 -10 95 -5 4 -7 10 -4 15 3 5 1
11 -3 14 -5 3 -10 42 -11 86 -3 104 -11 183 -19 190 -4 3 -8 37 -10 75 -6 147
-17 148 -30 5z"/>
<path d="M1538 816 c-110 -41 -167 -127 -167 -256 -1 -73 23 -138 60 -163 22
-16 22 -17 3 -38 -29 -32 -69 -49 -116 -49 -55 0 -88 -9 -88 -24 0 -8 46 -11
153 -11 126 0 158 3 184 17 17 10 35 22 38 28 3 5 -11 0 -32 -12 -31 -19 -51
-23 -107 -21 -38 1 -73 6 -79 12 -8 8 -8 11 1 11 6 0 27 13 45 30 26 23 45 30
78 32 37 1 39 2 12 5 -18 2 -33 6 -33 8 0 3 10 24 22 49 l21 44 53 -5 c71 -8
114 19 150 93 59 121 3 245 -116 259 -27 3 -60 -1 -82 -9z m132 -24 c111 -82
56 -312 -75 -312 -55 0 -58 9 -30 90 27 78 48 110 75 110 19 0 40 19 40 37 0
20 -20 16 -56 -12 -18 -14 -41 -25 -51 -25 -58 -1 -103 -95 -72 -152 8 -15 6
-32 -11 -74 -12 -30 -26 -54 -29 -54 -4 0 -17 11 -29 23 -68 72 -50 233 35
327 25 28 59 54 76 59 42 13 96 6 127 -17z"/>
<path d="M3259 821 c-64 -20 -144 -88 -212 -180 l-40 -54 -29 31 c-43 49 -38
112 15 169 27 31 17 38 -17 12 -72 -57 -73 -153 -1 -206 l26 -19 -22 -49 c-16
-36 -23 -70 -23 -123 -1 -71 0 -75 32 -103 53 -48 107 -35 176 41 44 48 56 77
56 130 0 68 -62 73 -96 8 l-17 -33 26 23 c37 35 61 26 65 -23 5 -76 -68 -151
-137 -141 -19 3 -41 12 -49 20 -25 25 -26 98 -3 175 18 60 25 71 44 71 18 0
19 2 7 10 -13 8 -12 14 5 47 28 53 119 148 159 167 69 33 116 10 116 -56 0
-42 -36 -81 -72 -76 -19 2 -24 10 -26 41 -4 49 -22 48 -22 -2 0 -32 -6 -44
-35 -70 -20 -17 -41 -31 -47 -31 -6 0 -9 -3 -6 -6 9 -9 67 24 80 46 10 15 20
18 53 14 35 -5 43 -2 69 24 33 35 41 101 16 126 -20 19 -59 27 -91 17z"/>
<path d="M952 780 c-64 -43 -110 -93 -161 -177 -18 -29 -36 -53 -40 -53 -15 0
-41 37 -47 67 -13 66 29 132 96 151 l35 10 -31 1 c-37 1 -94 -34 -111 -69 -27
-53 -8 -131 39 -164 20 -14 20 -19 10 -54 -17 -55 -15 -137 3 -172 48 -94 180
-54 276 83 47 67 73 130 84 202 4 27 13 62 21 77 18 36 18 88 -2 116 -12 18
-25 22 -63 22 -40 0 -59 -7 -109 -40z m142 9 c20 -16 26 -29 26 -58 0 -50 -11
-58 -26 -21 -16 37 -37 46 -70 32 -28 -13 -33 -36 -5 -27 28 8 49 -3 59 -35
12 -34 -9 -60 -50 -60 -44 0 -58 10 -58 41 0 16 -4 29 -10 29 -11 0 -13 -12
-10 -48 4 -47 -45 -91 -117 -107 -43 -9 -43 9 -3 81 60 104 158 192 216 194
12 0 33 -9 48 -21z m-79 -182 c6 0 25 3 43 7 17 4 32 5 32 2 0 -3 -5 -29 -11
-58 -33 -156 -166 -289 -258 -257 -50 18 -67 83 -48 182 7 33 11 37 38 37 46
0 94 24 125 64 22 27 34 34 49 29 11 -3 25 -6 30 -6z"/>
<path d="M555 752 c-48 -30 -60 -49 -140 -215 -41 -87 -85 -171 -97 -188 -55
-75 -160 -102 -212 -54 -43 40 -29 102 22 88 17 -4 22 -1 22 15 0 22 -22 35
-45 26 -41 -16 -48 -98 -12 -132 73 -68 189 -39 266 69 16 21 56 104 91 184
73 170 102 208 150 198 25 -5 32 -3 28 8 -7 21 -40 22 -73 1z"/>
<path d="M3733 577 c-47 -27 -80 -86 -171 -317 -72 -180 -94 -220 -121 -220
-26 0 -34 -15 -16 -30 18 -15 73 -6 101 15 17 13 16 14 -14 4 -18 -6 -35 -9
-38 -7 -2 3 11 31 31 63 19 32 51 102 71 154 62 161 74 188 104 216 25 24 32
26 45 15 37 -31 -27 -180 -76 -180 -9 0 -19 6 -22 13 -2 6 -8 9 -12 5 -11 -10
14 -38 33 -38 28 0 90 77 106 131 27 91 -5 128 -69 78 l-27 -22 20 40 c26 50
45 65 74 61 15 -2 23 2 23 11 0 20 -16 23 -42 8z"/>
</g>
</svg>
